<svg xmlns="http://www.w3.org/2000/svg" viewBox="0 0 600 600" width="600" height="600">
<!-- Its hand coming at the camera: forearm from the bottom right, fingers spread, one joint too many. -->
  <defs>
    <filter id="ink" x="-20%" y="-20%" width="140%" height="140%">
      <feTurbulence type="fractalNoise" baseFrequency="0.03" numOctaves="3" seed="9" result="n"/>
      <feDisplacementMap in="SourceGraphic" in2="n" scale="12" xChannelSelector="R" yChannelSelector="G"/>
    </filter>
  </defs>
  <g filter="url(#ink)" fill="#030304" stroke="#030304" stroke-linecap="round" stroke-linejoin="round">
    <path d="M600 520 C520 470 440 430 380 400" stroke-width="70" fill="none"/>
    <path d="M300 300 C340 280 400 320 410 380 C400 430 340 450 300 430 C260 410 250 330 300 300 Z"/>
    <g fill="none">
      <path d="M300 320 C260 260 230 210 205 150 C195 120 188 95 180 60" stroke-width="20"/>
      <path d="M318 305 C300 240 292 180 290 120 C290 90 292 60 296 25" stroke-width="20"/>
      <path d="M345 305 C350 245 368 190 384 140 C392 112 400 88 410 55" stroke-width="18"/>
      <path d="M370 320 C400 270 430 235 462 200 C478 182 494 166 512 150" stroke-width="16"/>
      <path d="M290 380 C240 380 200 372 160 352 C130 338 104 320 80 300" stroke-width="22"/>
    </g>
    <g>
      <circle cx="205" cy="150" r="14"/><circle cx="290" cy="120" r="14"/><circle cx="384" cy="140" r="13"/><circle cx="462" cy="200" r="12"/><circle cx="160" cy="352" r="15"/>
    </g>
  </g>
</svg>
